<mxfile host="app.diagrams.net" agent="Mozilla/5.0 (Macintosh; Intel Mac OS X 10_15_7) AppleWebKit/537.36 (KHTML, like Gecko) Chrome/127.0.0.0 Safari/537.36" version="24.7.6">
  <diagram name="Page-1" id="sGkeYeLTwI-BVsEGscHQ">
    <mxGraphModel dx="1581" dy="462" grid="1" gridSize="10" guides="1" tooltips="1" connect="1" arrows="1" fold="1" page="1" pageScale="1" pageWidth="850" pageHeight="1100" math="0" shadow="0">
      <root>
        <mxCell id="0" />
        <mxCell id="1" parent="0" />
        <mxCell id="mzd9-QrbxVnTwReY6IDV-1" value="Facebook News Feed" style="text;html=1;align=center;verticalAlign=middle;resizable=0;points=[];autosize=1;strokeColor=none;fillColor=none;fontStyle=1;fontSize=20;" parent="1" vertex="1">
          <mxGeometry x="245" y="25" width="220" height="40" as="geometry" />
        </mxCell>
        <mxCell id="tEh3jCyai3d1klcnOZ62-4" value="&lt;ol&gt;&lt;li&gt;General Requirements&lt;/li&gt;&lt;li&gt;Specific Requirements&lt;/li&gt;&lt;li&gt;Component Architecture&lt;/li&gt;&lt;li&gt;Data Entities&lt;/li&gt;&lt;li&gt;Data API&lt;/li&gt;&lt;li&gt;Data Store&lt;/li&gt;&lt;li&gt;Optimization&lt;/li&gt;&lt;li&gt;&lt;span style=&quot;background-color: initial;&quot;&gt;Accessibility&lt;/span&gt;&lt;/li&gt;&lt;/ol&gt;" style="text;html=1;align=left;verticalAlign=middle;resizable=0;points=[];autosize=1;strokeColor=none;fillColor=none;" vertex="1" parent="1">
          <mxGeometry x="245" y="90" width="190" height="150" as="geometry" />
        </mxCell>
        <mxCell id="tEh3jCyai3d1klcnOZ62-6" value="Requirements&lt;div&gt;&lt;br&gt;&lt;/div&gt;" style="text;html=1;align=center;verticalAlign=middle;resizable=0;points=[];autosize=1;strokeColor=none;fillColor=none;fontStyle=5" vertex="1" parent="1">
          <mxGeometry x="40" y="285" width="100" height="40" as="geometry" />
        </mxCell>
        <mxCell id="tEh3jCyai3d1klcnOZ62-7" value="&lt;ol style=&quot;font-size: 10px;&quot;&gt;&lt;li style=&quot;&quot;&gt;&lt;font style=&quot;font-size: 10px;&quot;&gt;Infinite scroll&lt;/font&gt;&lt;/li&gt;&lt;li style=&quot;&quot;&gt;&lt;font style=&quot;font-size: 10px;&quot;&gt;Share &amp;amp; Post the story&lt;/font&gt;&lt;/li&gt;&lt;li style=&quot;&quot;&gt;&lt;font style=&quot;font-size: 10px;&quot;&gt;Like, Comment and attaches images and videos&lt;/font&gt;&lt;/li&gt;&lt;/ol&gt;&lt;div style=&quot;font-size: 10px;&quot;&gt;&lt;br&gt;&lt;/div&gt;" style="rounded=0;whiteSpace=wrap;html=1;align=left;" vertex="1" parent="1">
          <mxGeometry x="50" y="325" width="250" height="80" as="geometry" />
        </mxCell>
        <mxCell id="tEh3jCyai3d1klcnOZ62-8" value="&lt;ol style=&quot;font-size: 10px;&quot;&gt;&lt;li style=&quot;&quot;&gt;&lt;span style=&quot;background-color: initial;&quot;&gt;Support for wide range of devices&lt;/span&gt;&lt;/li&gt;&lt;li style=&quot;&quot;&gt;&lt;span style=&quot;background-color: initial;&quot;&gt;Accessiblity&lt;/span&gt;&lt;/li&gt;&lt;/ol&gt;&lt;div style=&quot;font-size: 10px;&quot;&gt;&lt;br&gt;&lt;/div&gt;" style="rounded=0;whiteSpace=wrap;html=1;align=left;" vertex="1" parent="1">
          <mxGeometry x="330" y="325" width="250" height="80" as="geometry" />
        </mxCell>
        <mxCell id="tEh3jCyai3d1klcnOZ62-9" value="&lt;div&gt;Story Component&lt;/div&gt;&lt;div&gt;&lt;br&gt;&lt;/div&gt;" style="text;html=1;align=center;verticalAlign=middle;resizable=0;points=[];autosize=1;strokeColor=none;fillColor=none;fontStyle=5" vertex="1" parent="1">
          <mxGeometry x="230" y="470" width="120" height="40" as="geometry" />
        </mxCell>
        <mxCell id="tEh3jCyai3d1klcnOZ62-10" value="" style="rounded=0;whiteSpace=wrap;html=1;" vertex="1" parent="1">
          <mxGeometry x="60" y="510" width="490" height="260" as="geometry" />
        </mxCell>
        <mxCell id="tEh3jCyai3d1klcnOZ62-11" value="" style="ellipse;whiteSpace=wrap;html=1;" vertex="1" parent="1">
          <mxGeometry x="80" y="525" width="35" height="35" as="geometry" />
        </mxCell>
        <mxCell id="tEh3jCyai3d1klcnOZ62-12" value="Ramu B" style="rounded=0;whiteSpace=wrap;html=1;" vertex="1" parent="1">
          <mxGeometry x="140" y="525" width="380" height="30" as="geometry" />
        </mxCell>
        <mxCell id="tEh3jCyai3d1klcnOZ62-13" value="Text and image content" style="rounded=1;whiteSpace=wrap;html=1;" vertex="1" parent="1">
          <mxGeometry x="140" y="590" width="380" height="70" as="geometry" />
        </mxCell>
        <mxCell id="tEh3jCyai3d1klcnOZ62-15" value="Like" style="rounded=1;whiteSpace=wrap;html=1;" vertex="1" parent="1">
          <mxGeometry x="140" y="700" width="90" height="30" as="geometry" />
        </mxCell>
        <mxCell id="tEh3jCyai3d1klcnOZ62-16" value="Share" style="rounded=1;whiteSpace=wrap;html=1;" vertex="1" parent="1">
          <mxGeometry x="430" y="700" width="90" height="30" as="geometry" />
        </mxCell>
        <mxCell id="tEh3jCyai3d1klcnOZ62-17" value="Comment" style="rounded=1;whiteSpace=wrap;html=1;" vertex="1" parent="1">
          <mxGeometry x="285" y="700" width="90" height="30" as="geometry" />
        </mxCell>
        <mxCell id="tEh3jCyai3d1klcnOZ62-18" value="" style="rounded=0;whiteSpace=wrap;html=1;" vertex="1" parent="1">
          <mxGeometry x="60" y="860" width="500" height="150" as="geometry" />
        </mxCell>
        <mxCell id="tEh3jCyai3d1klcnOZ62-19" value="Comment List" style="text;html=1;align=center;verticalAlign=middle;resizable=0;points=[];autosize=1;strokeColor=none;fillColor=none;" vertex="1" parent="1">
          <mxGeometry x="240" y="810" width="100" height="30" as="geometry" />
        </mxCell>
        <mxCell id="tEh3jCyai3d1klcnOZ62-20" value="" style="ellipse;whiteSpace=wrap;html=1;" vertex="1" parent="1">
          <mxGeometry x="80" y="880" width="45" height="40" as="geometry" />
        </mxCell>
        <mxCell id="tEh3jCyai3d1klcnOZ62-21" value="Comment Text" style="rounded=1;whiteSpace=wrap;html=1;" vertex="1" parent="1">
          <mxGeometry x="160" y="885" width="340" height="30" as="geometry" />
        </mxCell>
        <mxCell id="tEh3jCyai3d1klcnOZ62-22" value="Comment Text" style="rounded=1;whiteSpace=wrap;html=1;" vertex="1" parent="1">
          <mxGeometry x="160" y="935" width="340" height="30" as="geometry" />
        </mxCell>
        <mxCell id="tEh3jCyai3d1klcnOZ62-23" value="" style="ellipse;whiteSpace=wrap;html=1;" vertex="1" parent="1">
          <mxGeometry x="80" y="930" width="45" height="40" as="geometry" />
        </mxCell>
        <mxCell id="tEh3jCyai3d1klcnOZ62-25" value="&lt;div&gt;Component Architecture&lt;/div&gt;" style="text;html=1;align=center;verticalAlign=middle;resizable=0;points=[];autosize=1;strokeColor=none;fillColor=none;fontStyle=5" vertex="1" parent="1">
          <mxGeometry x="185" y="1095" width="150" height="30" as="geometry" />
        </mxCell>
        <mxCell id="tEh3jCyai3d1klcnOZ62-45" value="" style="edgeStyle=orthogonalEdgeStyle;rounded=0;orthogonalLoop=1;jettySize=auto;html=1;" edge="1" parent="1" source="tEh3jCyai3d1klcnOZ62-26" target="tEh3jCyai3d1klcnOZ62-28">
          <mxGeometry relative="1" as="geometry" />
        </mxCell>
        <mxCell id="tEh3jCyai3d1klcnOZ62-26" value="News Feed" style="whiteSpace=wrap;html=1;" vertex="1" parent="1">
          <mxGeometry x="210" y="1160" width="120" height="30" as="geometry" />
        </mxCell>
        <mxCell id="tEh3jCyai3d1klcnOZ62-43" style="edgeStyle=orthogonalEdgeStyle;rounded=0;orthogonalLoop=1;jettySize=auto;html=1;entryX=0.5;entryY=0;entryDx=0;entryDy=0;" edge="1" parent="1" source="tEh3jCyai3d1klcnOZ62-27" target="tEh3jCyai3d1klcnOZ62-29">
          <mxGeometry relative="1" as="geometry" />
        </mxCell>
        <mxCell id="tEh3jCyai3d1klcnOZ62-44" style="edgeStyle=orthogonalEdgeStyle;rounded=0;orthogonalLoop=1;jettySize=auto;html=1;entryX=0.5;entryY=0;entryDx=0;entryDy=0;" edge="1" parent="1" source="tEh3jCyai3d1klcnOZ62-27" target="tEh3jCyai3d1klcnOZ62-31">
          <mxGeometry relative="1" as="geometry" />
        </mxCell>
        <mxCell id="tEh3jCyai3d1klcnOZ62-27" value="Story" style="whiteSpace=wrap;html=1;" vertex="1" parent="1">
          <mxGeometry x="210" y="1230" width="120" height="30" as="geometry" />
        </mxCell>
        <mxCell id="tEh3jCyai3d1klcnOZ62-36" value="" style="edgeStyle=orthogonalEdgeStyle;rounded=0;orthogonalLoop=1;jettySize=auto;html=1;" edge="1" parent="1" source="tEh3jCyai3d1klcnOZ62-28" target="tEh3jCyai3d1klcnOZ62-32">
          <mxGeometry relative="1" as="geometry" />
        </mxCell>
        <mxCell id="tEh3jCyai3d1klcnOZ62-28" value="Comment List" style="whiteSpace=wrap;html=1;" vertex="1" parent="1">
          <mxGeometry x="210" y="1290" width="120" height="30" as="geometry" />
        </mxCell>
        <mxCell id="tEh3jCyai3d1klcnOZ62-29" value="Comment Input" style="whiteSpace=wrap;html=1;" vertex="1" parent="1">
          <mxGeometry x="365" y="1290" width="120" height="30" as="geometry" />
        </mxCell>
        <mxCell id="tEh3jCyai3d1klcnOZ62-31" value="Story Card" style="whiteSpace=wrap;html=1;" vertex="1" parent="1">
          <mxGeometry x="60" y="1290" width="120" height="30" as="geometry" />
        </mxCell>
        <mxCell id="tEh3jCyai3d1klcnOZ62-32" value="Comment" style="whiteSpace=wrap;html=1;" vertex="1" parent="1">
          <mxGeometry x="210" y="1350" width="120" height="30" as="geometry" />
        </mxCell>
        <mxCell id="tEh3jCyai3d1klcnOZ62-46" value="&lt;div&gt;Data Entities&lt;/div&gt;" style="text;html=1;align=center;verticalAlign=middle;resizable=0;points=[];autosize=1;strokeColor=none;fillColor=none;fontStyle=5" vertex="1" parent="1">
          <mxGeometry x="215" y="1470" width="90" height="30" as="geometry" />
        </mxCell>
        <mxCell id="tEh3jCyai3d1klcnOZ62-51" value="type Story {&lt;blockquote style=&quot;margin: 0 0 0 40px; border: none; padding: 0px;&quot;&gt;&lt;div&gt;id: string;&lt;/div&gt;&lt;div&gt;comments: Comment[];&lt;/div&gt;&lt;div&gt;media: Media[];&lt;/div&gt;&lt;div&gt;date: Date;&lt;/div&gt;&lt;div&gt;origin: Origin;&lt;/div&gt;&lt;/blockquote&gt;&lt;div&gt;}&lt;/div&gt;" style="whiteSpace=wrap;html=1;align=left;" vertex="1" parent="1">
          <mxGeometry x="60" y="1530" width="210" height="160" as="geometry" />
        </mxCell>
        <mxCell id="tEh3jCyai3d1klcnOZ62-52" value="type Origin {&lt;blockquote style=&quot;margin: 0 0 0 40px; border: none; padding: 0px;&quot;&gt;&lt;div&gt;id: string;&lt;/div&gt;&lt;div&gt;name: string;&lt;/div&gt;&lt;div&gt;type: OriginType; // Group | Solo;&lt;/div&gt;&lt;/blockquote&gt;&lt;div&gt;}&lt;/div&gt;" style="whiteSpace=wrap;html=1;align=left;" vertex="1" parent="1">
          <mxGeometry x="330" y="1530" width="280" height="160" as="geometry" />
        </mxCell>
        <mxCell id="tEh3jCyai3d1klcnOZ62-53" value="type Comment {&lt;blockquote style=&quot;margin: 0 0 0 40px; border: none; padding: 0px;&quot;&gt;&lt;div&gt;id: string;&lt;/div&gt;&lt;div&gt;authorId: string;&lt;/div&gt;&lt;div&gt;media: Media[];&lt;/div&gt;&lt;div&gt;date: Date;&lt;/div&gt;&lt;div&gt;content: text;&lt;/div&gt;&lt;/blockquote&gt;&lt;div&gt;}&lt;/div&gt;" style="whiteSpace=wrap;html=1;align=left;" vertex="1" parent="1">
          <mxGeometry x="660" y="1530" width="210" height="160" as="geometry" />
        </mxCell>
        <mxCell id="tEh3jCyai3d1klcnOZ62-54" value="type Media {&lt;blockquote style=&quot;margin: 0 0 0 40px; border: none; padding: 0px;&quot;&gt;&lt;div&gt;id: string;&lt;/div&gt;&lt;div&gt;type: link | video;&lt;/div&gt;&lt;div&gt;url: string;&lt;/div&gt;&lt;div&gt;}&lt;/div&gt;&lt;/blockquote&gt;" style="whiteSpace=wrap;html=1;align=left;" vertex="1" parent="1">
          <mxGeometry x="920" y="1530" width="210" height="160" as="geometry" />
        </mxCell>
        <mxCell id="tEh3jCyai3d1klcnOZ62-55" value="&lt;div&gt;API Endpoints&lt;/div&gt;" style="text;html=1;align=center;verticalAlign=middle;resizable=0;points=[];autosize=1;strokeColor=none;fillColor=none;fontStyle=5" vertex="1" parent="1">
          <mxGeometry x="225" y="1770" width="100" height="30" as="geometry" />
        </mxCell>
        <mxCell id="tEh3jCyai3d1klcnOZ62-56" value="1. getPosts(userId, showComments, pageSize)" style="text;html=1;align=left;verticalAlign=middle;resizable=0;points=[];autosize=1;strokeColor=none;fillColor=none;" vertex="1" parent="1">
          <mxGeometry x="55" y="1840" width="270" height="30" as="geometry" />
        </mxCell>
        <mxCell id="tEh3jCyai3d1klcnOZ62-58" value="2. createPost(userId, postData)" style="text;html=1;align=left;verticalAlign=middle;resizable=0;points=[];autosize=1;strokeColor=none;fillColor=none;" vertex="1" parent="1">
          <mxGeometry x="55" y="1880" width="190" height="30" as="geometry" />
        </mxCell>
        <mxCell id="tEh3jCyai3d1klcnOZ62-59" value="3. createComment(userId, postId, commentData)" style="text;html=1;align=left;verticalAlign=middle;resizable=0;points=[];autosize=1;strokeColor=none;fillColor=none;" vertex="1" parent="1">
          <mxGeometry x="55" y="1919" width="280" height="30" as="geometry" />
        </mxCell>
        <mxCell id="tEh3jCyai3d1klcnOZ62-63" value="" style="edgeStyle=orthogonalEdgeStyle;rounded=0;orthogonalLoop=1;jettySize=auto;html=1;" edge="1" parent="1" source="tEh3jCyai3d1klcnOZ62-60" target="tEh3jCyai3d1klcnOZ62-61">
          <mxGeometry relative="1" as="geometry" />
        </mxCell>
        <mxCell id="tEh3jCyai3d1klcnOZ62-64" style="edgeStyle=orthogonalEdgeStyle;rounded=0;orthogonalLoop=1;jettySize=auto;html=1;" edge="1" parent="1" source="tEh3jCyai3d1klcnOZ62-60" target="tEh3jCyai3d1klcnOZ62-62">
          <mxGeometry relative="1" as="geometry" />
        </mxCell>
        <mxCell id="tEh3jCyai3d1klcnOZ62-60" value="&lt;b&gt;API&lt;/b&gt;" style="whiteSpace=wrap;html=1;" vertex="1" parent="1">
          <mxGeometry x="535" y="1810.5" width="120" height="60" as="geometry" />
        </mxCell>
        <mxCell id="tEh3jCyai3d1klcnOZ62-61" value="&lt;b&gt;REST&lt;/b&gt;" style="whiteSpace=wrap;html=1;" vertex="1" parent="1">
          <mxGeometry x="450" y="1919.5" width="120" height="60" as="geometry" />
        </mxCell>
        <mxCell id="tEh3jCyai3d1klcnOZ62-62" value="&lt;b&gt;GraphQL&lt;/b&gt;" style="whiteSpace=wrap;html=1;" vertex="1" parent="1">
          <mxGeometry x="625" y="1919.5" width="120" height="60" as="geometry" />
        </mxCell>
        <mxCell id="tEh3jCyai3d1klcnOZ62-65" value="&lt;div&gt;Data Store&lt;/div&gt;" style="text;html=1;align=center;verticalAlign=middle;resizable=0;points=[];autosize=1;strokeColor=none;fillColor=none;fontStyle=5" vertex="1" parent="1">
          <mxGeometry x="235" y="2080" width="80" height="30" as="geometry" />
        </mxCell>
        <mxCell id="tEh3jCyai3d1klcnOZ62-66" value="Store" style="shape=datastore;whiteSpace=wrap;html=1;" vertex="1" parent="1">
          <mxGeometry x="55" y="2170" width="60" height="60" as="geometry" />
        </mxCell>
        <mxCell id="tEh3jCyai3d1klcnOZ62-67" value="feed_store: {feed_id: feed}&lt;div&gt;user_store: {feed_id: user}&lt;br&gt;&lt;/div&gt;&lt;div&gt;comment_store: {feed_id: comment}&lt;br&gt;&lt;/div&gt;" style="whiteSpace=wrap;html=1;" vertex="1" parent="1">
          <mxGeometry x="135" y="2170" width="320" height="100" as="geometry" />
        </mxCell>
        <mxCell id="tEh3jCyai3d1klcnOZ62-68" value="Normalized Store" style="text;html=1;align=center;verticalAlign=middle;resizable=0;points=[];autosize=1;strokeColor=none;fillColor=none;" vertex="1" parent="1">
          <mxGeometry x="235" y="2140" width="120" height="30" as="geometry" />
        </mxCell>
        <mxCell id="tEh3jCyai3d1klcnOZ62-69" value="&lt;div&gt;Edge Cases&lt;/div&gt;" style="text;html=1;align=center;verticalAlign=middle;resizable=0;points=[];autosize=1;strokeColor=none;fillColor=none;fontStyle=5" vertex="1" parent="1">
          <mxGeometry x="655" y="2090" width="90" height="30" as="geometry" />
        </mxCell>
        <mxCell id="tEh3jCyai3d1klcnOZ62-70" value="Load New Stores" style="whiteSpace=wrap;html=1;" vertex="1" parent="1">
          <mxGeometry x="655" y="2140" width="120" height="60" as="geometry" />
        </mxCell>
        <mxCell id="tEh3jCyai3d1klcnOZ62-71" value="Long Polling" style="whiteSpace=wrap;html=1;" vertex="1" parent="1">
          <mxGeometry x="505" y="2250" width="120" height="60" as="geometry" />
        </mxCell>
        <mxCell id="tEh3jCyai3d1klcnOZ62-72" value="Web Sockets" style="whiteSpace=wrap;html=1;" vertex="1" parent="1">
          <mxGeometry x="655" y="2250" width="120" height="60" as="geometry" />
        </mxCell>
        <mxCell id="tEh3jCyai3d1klcnOZ62-73" value="SSE" style="whiteSpace=wrap;html=1;" vertex="1" parent="1">
          <mxGeometry x="800" y="2250" width="120" height="60" as="geometry" />
        </mxCell>
        <mxCell id="tEh3jCyai3d1klcnOZ62-74" value="HTTP2 not supported" style="text;html=1;align=center;verticalAlign=middle;resizable=0;points=[];autosize=1;strokeColor=none;fillColor=none;" vertex="1" parent="1">
          <mxGeometry x="650" y="2320" width="140" height="30" as="geometry" />
        </mxCell>
        <mxCell id="tEh3jCyai3d1klcnOZ62-75" value="Full Request&lt;div&gt;High latency&lt;/div&gt;" style="text;html=1;align=center;verticalAlign=middle;resizable=0;points=[];autosize=1;strokeColor=none;fillColor=none;" vertex="1" parent="1">
          <mxGeometry x="520" y="2320" width="90" height="40" as="geometry" />
        </mxCell>
        <mxCell id="tEh3jCyai3d1klcnOZ62-79" style="edgeStyle=orthogonalEdgeStyle;rounded=0;orthogonalLoop=1;jettySize=auto;html=1;entryX=0.588;entryY=-0.052;entryDx=0;entryDy=0;entryPerimeter=0;" edge="1" parent="1" source="tEh3jCyai3d1klcnOZ62-70" target="tEh3jCyai3d1klcnOZ62-73">
          <mxGeometry relative="1" as="geometry" />
        </mxCell>
        <mxCell id="tEh3jCyai3d1klcnOZ62-80" value="Very effective&lt;div&gt;Easy for load balancing&lt;/div&gt;" style="text;html=1;align=center;verticalAlign=middle;resizable=0;points=[];autosize=1;strokeColor=none;fillColor=none;" vertex="1" parent="1">
          <mxGeometry x="795" y="2320" width="150" height="40" as="geometry" />
        </mxCell>
        <mxCell id="tEh3jCyai3d1klcnOZ62-81" value="3. subscribe(userId, newStores)" style="text;html=1;align=left;verticalAlign=middle;resizable=0;points=[];autosize=1;strokeColor=none;fillColor=none;" vertex="1" parent="1">
          <mxGeometry x="55" y="1960" width="190" height="30" as="geometry" />
        </mxCell>
        <mxCell id="tEh3jCyai3d1klcnOZ62-82" value="Explain why we shold go for INFINITE SCROLLING rather that PAGINATION" style="text;html=1;align=left;verticalAlign=middle;resizable=0;points=[];autosize=1;strokeColor=none;fillColor=none;" vertex="1" parent="1">
          <mxGeometry x="80" y="2430" width="430" height="30" as="geometry" />
        </mxCell>
        <mxCell id="tEh3jCyai3d1klcnOZ62-83" value="As PAGINATION needs more user clicks" style="text;html=1;align=left;verticalAlign=middle;resizable=0;points=[];autosize=1;strokeColor=none;fillColor=none;" vertex="1" parent="1">
          <mxGeometry x="80" y="2460" width="240" height="30" as="geometry" />
        </mxCell>
        <mxCell id="tEh3jCyai3d1klcnOZ62-84" value="INTERSECTION OBSERVER API for infinite scrolling (as it maintains TOP SENTINAL, BOTTOM SENTINAL, SLIDING the visible window everytime)" style="text;html=1;align=left;verticalAlign=middle;resizable=0;points=[];autosize=1;strokeColor=none;fillColor=none;" vertex="1" parent="1">
          <mxGeometry x="80" y="2494" width="810" height="30" as="geometry" />
        </mxCell>
        <mxCell id="tEh3jCyai3d1klcnOZ62-85" value="&lt;div&gt;Optimization&lt;/div&gt;" style="text;html=1;align=center;verticalAlign=middle;resizable=0;points=[];autosize=1;strokeColor=none;fillColor=none;fontStyle=5" vertex="1" parent="1">
          <mxGeometry x="490" y="2600" width="90" height="30" as="geometry" />
        </mxCell>
        <mxCell id="tEh3jCyai3d1klcnOZ62-90" value="" style="edgeStyle=orthogonalEdgeStyle;rounded=0;orthogonalLoop=1;jettySize=auto;html=1;" edge="1" parent="1" source="tEh3jCyai3d1klcnOZ62-86" target="tEh3jCyai3d1klcnOZ62-89">
          <mxGeometry relative="1" as="geometry" />
        </mxCell>
        <mxCell id="tEh3jCyai3d1klcnOZ62-86" value="Network Perfomance" style="whiteSpace=wrap;html=1;" vertex="1" parent="1">
          <mxGeometry x="285" y="2670" width="120" height="60" as="geometry" />
        </mxCell>
        <mxCell id="tEh3jCyai3d1klcnOZ62-113" value="" style="edgeStyle=orthogonalEdgeStyle;rounded=0;orthogonalLoop=1;jettySize=auto;html=1;" edge="1" parent="1" source="tEh3jCyai3d1klcnOZ62-87" target="tEh3jCyai3d1klcnOZ62-112">
          <mxGeometry relative="1" as="geometry" />
        </mxCell>
        <mxCell id="tEh3jCyai3d1klcnOZ62-116" style="edgeStyle=orthogonalEdgeStyle;rounded=0;orthogonalLoop=1;jettySize=auto;html=1;entryX=0.5;entryY=0;entryDx=0;entryDy=0;" edge="1" parent="1" source="tEh3jCyai3d1klcnOZ62-87" target="tEh3jCyai3d1klcnOZ62-114">
          <mxGeometry relative="1" as="geometry" />
        </mxCell>
        <mxCell id="tEh3jCyai3d1klcnOZ62-118" style="edgeStyle=orthogonalEdgeStyle;rounded=0;orthogonalLoop=1;jettySize=auto;html=1;entryX=0.5;entryY=0;entryDx=0;entryDy=0;" edge="1" parent="1" source="tEh3jCyai3d1klcnOZ62-87" target="tEh3jCyai3d1klcnOZ62-117">
          <mxGeometry relative="1" as="geometry" />
        </mxCell>
        <mxCell id="tEh3jCyai3d1klcnOZ62-87" value="Render Perfomance" style="whiteSpace=wrap;html=1;" vertex="1" parent="1">
          <mxGeometry x="625" y="2665" width="120" height="60" as="geometry" />
        </mxCell>
        <mxCell id="tEh3jCyai3d1klcnOZ62-120" style="edgeStyle=orthogonalEdgeStyle;rounded=0;orthogonalLoop=1;jettySize=auto;html=1;entryX=0.5;entryY=0;entryDx=0;entryDy=0;" edge="1" parent="1" source="tEh3jCyai3d1klcnOZ62-88" target="tEh3jCyai3d1klcnOZ62-119">
          <mxGeometry relative="1" as="geometry" />
        </mxCell>
        <mxCell id="tEh3jCyai3d1klcnOZ62-123" style="edgeStyle=orthogonalEdgeStyle;rounded=0;orthogonalLoop=1;jettySize=auto;html=1;entryX=0.5;entryY=0;entryDx=0;entryDy=0;" edge="1" parent="1" source="tEh3jCyai3d1klcnOZ62-88" target="tEh3jCyai3d1klcnOZ62-121">
          <mxGeometry relative="1" as="geometry" />
        </mxCell>
        <mxCell id="tEh3jCyai3d1klcnOZ62-124" style="edgeStyle=orthogonalEdgeStyle;rounded=0;orthogonalLoop=1;jettySize=auto;html=1;entryX=0.5;entryY=0;entryDx=0;entryDy=0;" edge="1" parent="1" source="tEh3jCyai3d1klcnOZ62-88" target="tEh3jCyai3d1klcnOZ62-122">
          <mxGeometry relative="1" as="geometry" />
        </mxCell>
        <mxCell id="tEh3jCyai3d1klcnOZ62-88" value="JS Perfomance" style="whiteSpace=wrap;html=1;" vertex="1" parent="1">
          <mxGeometry x="1120" y="2665" width="120" height="60" as="geometry" />
        </mxCell>
        <mxCell id="tEh3jCyai3d1klcnOZ62-93" value="" style="edgeStyle=orthogonalEdgeStyle;rounded=0;orthogonalLoop=1;jettySize=auto;html=1;" edge="1" parent="1" source="tEh3jCyai3d1klcnOZ62-89" target="tEh3jCyai3d1klcnOZ62-91">
          <mxGeometry relative="1" as="geometry" />
        </mxCell>
        <mxCell id="tEh3jCyai3d1klcnOZ62-89" value="gzip" style="whiteSpace=wrap;html=1;" vertex="1" parent="1">
          <mxGeometry x="135" y="2780" width="120" height="60" as="geometry" />
        </mxCell>
        <mxCell id="tEh3jCyai3d1klcnOZ62-91" value="brottli" style="whiteSpace=wrap;html=1;" vertex="1" parent="1">
          <mxGeometry x="135" y="2870" width="120" height="60" as="geometry" />
        </mxCell>
        <mxCell id="tEh3jCyai3d1klcnOZ62-96" value="" style="edgeStyle=orthogonalEdgeStyle;rounded=0;orthogonalLoop=1;jettySize=auto;html=1;" edge="1" parent="1" source="tEh3jCyai3d1klcnOZ62-94" target="tEh3jCyai3d1klcnOZ62-95">
          <mxGeometry relative="1" as="geometry" />
        </mxCell>
        <mxCell id="tEh3jCyai3d1klcnOZ62-94" value="webp" style="whiteSpace=wrap;html=1;" vertex="1" parent="1">
          <mxGeometry x="285" y="2780" width="120" height="60" as="geometry" />
        </mxCell>
        <mxCell id="tEh3jCyai3d1klcnOZ62-108" style="edgeStyle=orthogonalEdgeStyle;rounded=0;orthogonalLoop=1;jettySize=auto;html=1;entryX=0.5;entryY=0;entryDx=0;entryDy=0;" edge="1" parent="1" source="tEh3jCyai3d1klcnOZ62-95" target="tEh3jCyai3d1klcnOZ62-97">
          <mxGeometry relative="1" as="geometry" />
        </mxCell>
        <mxCell id="tEh3jCyai3d1klcnOZ62-95" value="png" style="whiteSpace=wrap;html=1;" vertex="1" parent="1">
          <mxGeometry x="285" y="2870" width="120" height="60" as="geometry" />
        </mxCell>
        <mxCell id="tEh3jCyai3d1klcnOZ62-99" value="" style="edgeStyle=orthogonalEdgeStyle;rounded=0;orthogonalLoop=1;jettySize=auto;html=1;" edge="1" parent="1">
          <mxGeometry relative="1" as="geometry">
            <mxPoint x="335" y="3024.9999999999995" as="sourcePoint" />
            <mxPoint x="415" y="3024.9999999999995" as="targetPoint" />
            <Array as="points">
              <mxPoint x="370" y="3025" />
              <mxPoint x="370" y="3025" />
            </Array>
          </mxGeometry>
        </mxCell>
        <mxCell id="tEh3jCyai3d1klcnOZ62-105" style="edgeStyle=orthogonalEdgeStyle;rounded=0;orthogonalLoop=1;jettySize=auto;html=1;exitX=0.5;exitY=1;exitDx=0;exitDy=0;entryX=0;entryY=0.5;entryDx=0;entryDy=0;" edge="1" parent="1" source="tEh3jCyai3d1klcnOZ62-97" target="tEh3jCyai3d1klcnOZ62-104">
          <mxGeometry relative="1" as="geometry" />
        </mxCell>
        <mxCell id="tEh3jCyai3d1klcnOZ62-97" value="Image Optimization&lt;div&gt;Service&lt;/div&gt;" style="whiteSpace=wrap;html=1;" vertex="1" parent="1">
          <mxGeometry x="215" y="3010" width="120" height="60" as="geometry" />
        </mxCell>
        <mxCell id="tEh3jCyai3d1klcnOZ62-101" value="" style="edgeStyle=orthogonalEdgeStyle;rounded=0;orthogonalLoop=1;jettySize=auto;html=1;" edge="1" parent="1" source="tEh3jCyai3d1klcnOZ62-98" target="tEh3jCyai3d1klcnOZ62-97">
          <mxGeometry relative="1" as="geometry">
            <Array as="points">
              <mxPoint x="370" y="3050" />
              <mxPoint x="370" y="3050" />
            </Array>
          </mxGeometry>
        </mxCell>
        <mxCell id="tEh3jCyai3d1klcnOZ62-98" value="Story" style="whiteSpace=wrap;html=1;" vertex="1" parent="1">
          <mxGeometry x="415" y="3010" width="120" height="60" as="geometry" />
        </mxCell>
        <mxCell id="tEh3jCyai3d1klcnOZ62-100" value="" style="edgeStyle=orthogonalEdgeStyle;rounded=0;orthogonalLoop=1;jettySize=auto;html=1;entryX=1;entryY=0.75;entryDx=0;entryDy=0;" edge="1" parent="1" target="tEh3jCyai3d1klcnOZ62-97">
          <mxGeometry relative="1" as="geometry">
            <mxPoint x="335" y="3054" as="sourcePoint" />
            <mxPoint x="415" y="3054" as="targetPoint" />
          </mxGeometry>
        </mxCell>
        <mxCell id="tEh3jCyai3d1klcnOZ62-102" value="Optimized image" style="text;html=1;align=center;verticalAlign=middle;resizable=0;points=[];autosize=1;strokeColor=none;fillColor=none;fontSize=8;" vertex="1" parent="1">
          <mxGeometry x="335" y="3005" width="80" height="20" as="geometry" />
        </mxCell>
        <mxCell id="tEh3jCyai3d1klcnOZ62-103" value="url + viewport" style="text;html=1;align=center;verticalAlign=middle;resizable=0;points=[];autosize=1;strokeColor=none;fillColor=none;fontSize=8;" vertex="1" parent="1">
          <mxGeometry x="340" y="3050" width="70" height="20" as="geometry" />
        </mxCell>
        <mxCell id="tEh3jCyai3d1klcnOZ62-107" style="edgeStyle=orthogonalEdgeStyle;rounded=0;orthogonalLoop=1;jettySize=auto;html=1;entryX=0.75;entryY=1;entryDx=0;entryDy=0;" edge="1" parent="1" source="tEh3jCyai3d1klcnOZ62-104" target="tEh3jCyai3d1klcnOZ62-98">
          <mxGeometry relative="1" as="geometry" />
        </mxCell>
        <mxCell id="tEh3jCyai3d1klcnOZ62-104" value="CDN" style="whiteSpace=wrap;html=1;" vertex="1" parent="1">
          <mxGeometry x="320" y="3130" width="120" height="60" as="geometry" />
        </mxCell>
        <mxCell id="tEh3jCyai3d1klcnOZ62-111" value="" style="edgeStyle=orthogonalEdgeStyle;rounded=0;orthogonalLoop=1;jettySize=auto;html=1;" edge="1" parent="1" source="tEh3jCyai3d1klcnOZ62-109" target="tEh3jCyai3d1klcnOZ62-110">
          <mxGeometry relative="1" as="geometry" />
        </mxCell>
        <mxCell id="tEh3jCyai3d1klcnOZ62-109" value="Use HTTP2 (Multiplexing)" style="text;html=1;align=center;verticalAlign=middle;resizable=0;points=[];autosize=1;strokeColor=none;fillColor=none;" vertex="1" parent="1">
          <mxGeometry x="55" y="2620" width="160" height="30" as="geometry" />
        </mxCell>
        <mxCell id="tEh3jCyai3d1klcnOZ62-110" value="Bundle Splitting" style="whiteSpace=wrap;html=1;" vertex="1" parent="1">
          <mxGeometry x="80" y="2660" width="120" height="30" as="geometry" />
        </mxCell>
        <mxCell id="tEh3jCyai3d1klcnOZ62-112" value="SSR" style="whiteSpace=wrap;html=1;" vertex="1" parent="1">
          <mxGeometry x="510" y="2775" width="120" height="60" as="geometry" />
        </mxCell>
        <mxCell id="tEh3jCyai3d1klcnOZ62-127" value="" style="edgeStyle=orthogonalEdgeStyle;rounded=0;orthogonalLoop=1;jettySize=auto;html=1;" edge="1" parent="1" source="tEh3jCyai3d1klcnOZ62-114" target="tEh3jCyai3d1klcnOZ62-126">
          <mxGeometry relative="1" as="geometry" />
        </mxCell>
        <mxCell id="tEh3jCyai3d1klcnOZ62-114" value="Critical CSS Rendering" style="whiteSpace=wrap;html=1;" vertex="1" parent="1">
          <mxGeometry x="660" y="2775" width="120" height="60" as="geometry" />
        </mxCell>
        <mxCell id="tEh3jCyai3d1klcnOZ62-117" value="Load scripts defer" style="whiteSpace=wrap;html=1;" vertex="1" parent="1">
          <mxGeometry x="820" y="2775" width="120" height="60" as="geometry" />
        </mxCell>
        <mxCell id="tEh3jCyai3d1klcnOZ62-119" value="Follow async&amp;nbsp;" style="whiteSpace=wrap;html=1;" vertex="1" parent="1">
          <mxGeometry x="1050" y="2775" width="120" height="60" as="geometry" />
        </mxCell>
        <mxCell id="tEh3jCyai3d1klcnOZ62-121" value="Cache results" style="whiteSpace=wrap;html=1;" vertex="1" parent="1">
          <mxGeometry x="1200" y="2775" width="120" height="60" as="geometry" />
        </mxCell>
        <mxCell id="tEh3jCyai3d1klcnOZ62-122" value="Web workers" style="whiteSpace=wrap;html=1;" vertex="1" parent="1">
          <mxGeometry x="1350" y="2775" width="120" height="60" as="geometry" />
        </mxCell>
        <mxCell id="tEh3jCyai3d1klcnOZ62-125" value="Do heavy stuff in web workers" style="text;html=1;align=center;verticalAlign=middle;resizable=0;points=[];autosize=1;strokeColor=none;fillColor=none;" vertex="1" parent="1">
          <mxGeometry x="1410" y="2730" width="180" height="30" as="geometry" />
        </mxCell>
        <mxCell id="tEh3jCyai3d1klcnOZ62-126" value="CSS class naming&lt;div&gt;strategy (BEM)&lt;/div&gt;" style="whiteSpace=wrap;html=1;" vertex="1" parent="1">
          <mxGeometry x="660" y="2870" width="120" height="60" as="geometry" />
        </mxCell>
        <mxCell id="tEh3jCyai3d1klcnOZ62-129" style="edgeStyle=orthogonalEdgeStyle;rounded=0;orthogonalLoop=1;jettySize=auto;html=1;entryX=0;entryY=0.5;entryDx=0;entryDy=0;exitX=0.476;exitY=0.045;exitDx=0;exitDy=0;exitPerimeter=0;" edge="1" parent="1" source="tEh3jCyai3d1klcnOZ62-128" target="tEh3jCyai3d1klcnOZ62-95">
          <mxGeometry relative="1" as="geometry">
            <mxPoint x="190" y="2949.9999999999995" as="sourcePoint" />
            <mxPoint x="270" y="2900" as="targetPoint" />
            <Array as="points">
              <mxPoint x="109" y="2950" />
              <mxPoint x="270" y="2950" />
              <mxPoint x="270" y="2900" />
            </Array>
          </mxGeometry>
        </mxCell>
        <mxCell id="tEh3jCyai3d1klcnOZ62-131" value="" style="edgeStyle=orthogonalEdgeStyle;rounded=0;orthogonalLoop=1;jettySize=auto;html=1;" edge="1" parent="1" source="tEh3jCyai3d1klcnOZ62-128" target="tEh3jCyai3d1klcnOZ62-130">
          <mxGeometry relative="1" as="geometry" />
        </mxCell>
        <mxCell id="tEh3jCyai3d1klcnOZ62-128" value="Show some placeholder while loading original image for better UI/UX" style="text;html=1;align=center;verticalAlign=middle;resizable=0;points=[];autosize=1;strokeColor=none;fillColor=none;fontSize=9;" vertex="1" parent="1">
          <mxGeometry x="-35" y="2970" width="300" height="20" as="geometry" />
        </mxCell>
        <mxCell id="tEh3jCyai3d1klcnOZ62-130" value="Load image lazily" style="text;html=1;align=center;verticalAlign=middle;resizable=0;points=[];autosize=1;strokeColor=none;fillColor=none;fontSize=9;" vertex="1" parent="1">
          <mxGeometry x="70" y="3005" width="90" height="20" as="geometry" />
        </mxCell>
        <mxCell id="tEh3jCyai3d1klcnOZ62-132" value="&lt;div&gt;PWA Mode&lt;/div&gt;" style="text;html=1;align=center;verticalAlign=middle;resizable=0;points=[];autosize=1;strokeColor=none;fillColor=none;fontStyle=5" vertex="1" parent="1">
          <mxGeometry x="750" y="3040" width="80" height="30" as="geometry" />
        </mxCell>
        <mxCell id="tEh3jCyai3d1klcnOZ62-133" value="Use Service Workers" style="text;html=1;align=center;verticalAlign=middle;resizable=0;points=[];autosize=1;strokeColor=none;fillColor=none;fontSize=10;" vertex="1" parent="1">
          <mxGeometry x="840" y="3040" width="120" height="30" as="geometry" />
        </mxCell>
        <mxCell id="tEh3jCyai3d1klcnOZ62-134" value="" style="whiteSpace=wrap;html=1;" vertex="1" parent="1">
          <mxGeometry x="720" y="3100" width="310" height="190" as="geometry" />
        </mxCell>
        <mxCell id="tEh3jCyai3d1klcnOZ62-135" value="Application Cache" style="text;html=1;align=center;verticalAlign=middle;resizable=0;points=[];autosize=1;strokeColor=none;fillColor=none;" vertex="1" parent="1">
          <mxGeometry x="800" y="3070" width="120" height="30" as="geometry" />
        </mxCell>
        <mxCell id="tEh3jCyai3d1klcnOZ62-136" value="feed.js" style="whiteSpace=wrap;html=1;" vertex="1" parent="1">
          <mxGeometry x="745" y="3130" width="95" height="40" as="geometry" />
        </mxCell>
        <mxCell id="tEh3jCyai3d1klcnOZ62-137" value="feed.css" style="whiteSpace=wrap;html=1;" vertex="1" parent="1">
          <mxGeometry x="900" y="3130" width="95" height="40" as="geometry" />
        </mxCell>
        <mxCell id="tEh3jCyai3d1klcnOZ62-138" value="Story Data" style="whiteSpace=wrap;html=1;" vertex="1" parent="1">
          <mxGeometry x="745" y="3210" width="95" height="40" as="geometry" />
        </mxCell>
        <mxCell id="tEh3jCyai3d1klcnOZ62-139" value="Images" style="whiteSpace=wrap;html=1;" vertex="1" parent="1">
          <mxGeometry x="905" y="3210" width="95" height="40" as="geometry" />
        </mxCell>
        <mxCell id="tEh3jCyai3d1klcnOZ62-140" value="&lt;div&gt;Accessibility&lt;/div&gt;" style="text;html=1;align=center;verticalAlign=middle;resizable=0;points=[];autosize=1;strokeColor=none;fillColor=none;fontStyle=5" vertex="1" parent="1">
          <mxGeometry x="295" y="3340" width="90" height="30" as="geometry" />
        </mxCell>
        <mxCell id="tEh3jCyai3d1klcnOZ62-141" value="Support for different color schema - Color blindness people&amp;nbsp;" style="text;html=1;align=left;verticalAlign=middle;resizable=0;points=[];autosize=1;strokeColor=none;fillColor=none;fontSize=10;" vertex="1" parent="1">
          <mxGeometry x="245" y="3380" width="290" height="30" as="geometry" />
        </mxCell>
        <mxCell id="tEh3jCyai3d1klcnOZ62-142" value="Keyboard Navigation" style="text;html=1;align=left;verticalAlign=middle;resizable=0;points=[];autosize=1;strokeColor=none;fillColor=none;fontSize=10;" vertex="1" parent="1">
          <mxGeometry x="245" y="3400" width="120" height="30" as="geometry" />
        </mxCell>
        <mxCell id="tEh3jCyai3d1klcnOZ62-143" value="All inputs, textaras and other elements should have `area-life` attribute for screen readers" style="text;html=1;align=left;verticalAlign=middle;resizable=0;points=[];autosize=1;strokeColor=none;fillColor=none;fontSize=10;" vertex="1" parent="1">
          <mxGeometry x="245" y="3420" width="420" height="30" as="geometry" />
        </mxCell>
        <mxCell id="tEh3jCyai3d1klcnOZ62-144" value="Images should have `alt` attribute" style="text;html=1;align=left;verticalAlign=middle;resizable=0;points=[];autosize=1;strokeColor=none;fillColor=none;fontSize=10;" vertex="1" parent="1">
          <mxGeometry x="245" y="3440" width="170" height="30" as="geometry" />
        </mxCell>
        <mxCell id="tEh3jCyai3d1klcnOZ62-145" value="Hot keys for Post Story, Scroll up/down, Help, Home, Share options" style="text;html=1;align=left;verticalAlign=middle;resizable=0;points=[];autosize=1;strokeColor=none;fillColor=none;fontSize=10;" vertex="1" parent="1">
          <mxGeometry x="245" y="3460" width="320" height="30" as="geometry" />
        </mxCell>
      </root>
    </mxGraphModel>
  </diagram>
</mxfile>
